<svg xmlns="http://www.w3.org/2000/svg" width="22" height="20" viewBox="0 0 22 20" fill="none">
<path d="M21.6742 10.1955C21.6742 11.483 21.4207 12.7579 20.928 13.9473C20.4353 15.1368 19.7131 16.2176 18.8027 17.1279L11.8703 10.1955H21.6742Z" fill="#757AE9"/>
<path d="M18.4092 17.1279C16.5706 18.9665 14.0769 19.9994 11.4768 19.9994L11.4768 10.1955L18.4092 17.1279Z" fill="#9297EC"/>
<path d="M11.0861 19.9994C8.48599 19.9994 5.99233 18.9665 4.15374 17.128L11.0861 10.1955V19.9994Z" fill="#989CE8"/>
<path d="M3.36955 17.1279C1.53096 15.2894 0.498052 12.7957 0.498047 10.1955L10.302 10.1955L3.36955 17.1279Z" fill="#989CE8"/>
<path d="M0.888672 9.80294C0.888672 7.20279 1.92157 4.70914 3.76015 2.87055L10.6926 9.80295L0.888672 9.80294Z" fill="#757AE9"/>
<path d="M4.15373 2.87053C5.99231 1.03194 8.48597 -0.000969154 11.0861 -0.000976562L11.0861 9.80295L4.15373 2.87053Z" fill="#9297EC"/>
<path d="M11.4768 -0.000976562C14.0769 -0.000976531 16.5706 1.03193 18.4092 2.87051L11.4768 9.80295V-0.000976562Z" fill="#989CE8"/>
<path d="M18.8027 2.87052C20.6413 4.70911 21.6742 7.20277 21.6742 9.80292L11.8703 9.80295L18.8027 2.87052Z" fill="#989CE8"/>
</svg>