<svg width="235" height="136" viewBox="0 0 235 136" fill="none" xmlns="http://www.w3.org/2000/svg">
<g clip-path="url(#clip0_200_7786)">
<path d="M188.103 53.377H188.051L158.478 66.0996L118.016 83.5069C117.858 83.5739 117.688 83.6088 117.517 83.6097C117.345 83.6106 117.175 83.5774 117.016 83.5121L75.2712 66.0632L44.9714 53.3977L44.9251 53.377H44.8736C44.3955 53.3775 43.9371 53.5691 43.5991 53.9097C43.261 54.2503 43.0708 54.7121 43.0703 55.1937V134.094C43.0708 134.575 43.261 135.037 43.5991 135.378C43.9371 135.718 44.3955 135.91 44.8736 135.91H188.103C188.581 135.91 189.039 135.718 189.377 135.378C189.715 135.037 189.906 134.575 189.906 134.094V55.1937C189.906 54.7121 189.715 54.2503 189.377 53.9097C189.039 53.5691 188.581 53.3775 188.103 53.377Z" fill="white"/>
<path d="M188.232 53.8966C188.179 53.8966 188.128 53.8804 188.085 53.8501L116.841 3.86192C116.624 3.71051 116.367 3.62958 116.103 3.63004C115.839 3.63049 115.582 3.71229 115.365 3.86445L44.6353 53.8496C44.5793 53.8888 44.5102 53.9041 44.4431 53.8921C44.376 53.8801 44.3163 53.8418 44.2772 53.7856C44.238 53.7293 44.2226 53.6598 44.2343 53.5921C44.2459 53.5244 44.2837 53.4642 44.3394 53.4245L115.07 3.43943C115.372 3.22644 115.733 3.11194 116.102 3.11133C116.471 3.11072 116.832 3.22402 117.136 3.43601L188.379 53.424C188.424 53.4556 188.458 53.5009 188.476 53.5532C188.493 53.6055 188.494 53.6621 188.478 53.7149C188.461 53.7676 188.428 53.8136 188.384 53.8463C188.34 53.879 188.286 53.8966 188.232 53.8966H188.232Z" fill="#34785C"/>
<path d="M48.6777 55.6686L116.174 5.27051L184.182 59.2545L119.651 97.7959L84.6168 89.7506L48.6777 55.6686Z" fill="#121212" fill-opacity="0.08"/>
<path d="M87.5728 121.601H54.2281C53.8149 121.602 53.4185 121.437 53.1259 121.143C52.8333 120.849 52.6686 120.45 52.668 120.034C52.6674 119.617 52.8309 119.218 53.1226 118.923C53.4143 118.628 53.8104 118.463 54.2235 118.462H87.5728C87.986 118.461 88.3825 118.626 88.6751 118.92C88.9676 119.214 89.1324 119.613 89.133 120.029C89.1336 120.445 88.97 120.845 88.6783 121.14C88.3866 121.434 87.9906 121.6 87.5774 121.601H87.5728Z" fill="#34785C"/>
<path d="M66.1923 114.853H54.229C53.816 114.853 53.4198 114.688 53.1274 114.394C52.8351 114.101 52.6705 113.702 52.6699 113.286C52.6693 112.87 52.8327 112.47 53.1242 112.176C53.4157 111.881 53.8114 111.715 54.2244 111.714H66.1923C66.397 111.713 66.5997 111.754 66.789 111.832C66.9782 111.911 67.1503 112.026 67.2952 112.172C67.4402 112.317 67.5553 112.49 67.634 112.68C67.7126 112.871 67.7532 113.075 67.7535 113.281C67.7538 113.487 67.7138 113.692 67.6357 113.882C67.5577 114.073 67.4431 114.246 67.2985 114.392C67.1539 114.538 66.9823 114.654 66.7933 114.733C66.6042 114.812 66.4016 114.853 66.1969 114.853H66.1923Z" fill="#34785C"/>
<path d="M117.124 83.7393C116.87 83.7396 116.619 83.69 116.385 83.5934L74.7578 66.1916V11.7211C74.7584 11.2394 74.9485 10.7776 75.2866 10.437C75.6246 10.0964 76.083 9.90486 76.561 9.9043H156.419C156.897 9.90486 157.356 10.0964 157.694 10.437C158.032 10.7776 158.222 11.2394 158.222 11.7211V66.2296L158.144 66.2633L117.885 83.5849C117.644 83.687 117.385 83.7395 117.124 83.7393Z" fill="white"/>
<path d="M117.122 83.8688C116.852 83.8691 116.584 83.8164 116.334 83.7135L74.627 66.2782V11.721C74.6275 11.2049 74.8313 10.7101 75.1935 10.3452C75.5557 9.98027 76.0468 9.775 76.559 9.77441H156.417C156.929 9.775 157.42 9.98027 157.783 10.3452C158.145 10.7101 158.349 11.2049 158.349 11.721V66.3152L117.934 83.7041C117.677 83.8131 117.401 83.8691 117.122 83.8688ZM75.1421 65.9315L116.53 83.2336C116.916 83.3914 117.348 83.3888 117.733 83.2263L157.834 65.9725V11.721C157.833 11.3425 157.684 10.9797 157.418 10.7121C157.153 10.4445 156.793 10.294 156.417 10.2935H76.559C76.1834 10.294 75.8233 10.4445 75.5577 10.7121C75.292 10.9797 75.1426 11.3425 75.1422 11.721L75.1421 65.9315Z" fill="#34785C"/>
<path d="M187.716 53.377H187.665L158.091 66.0996L117.629 83.5069C117.471 83.5739 117.301 83.6088 117.13 83.6097C116.958 83.6106 116.788 83.5774 116.63 83.5121L74.8844 66.0632L44.5847 53.3977L44.5384 53.377H44.4868C44.0087 53.3775 43.5504 53.5691 43.2123 53.9097C42.8743 54.2503 42.6841 54.7121 42.6836 55.1937V134.094C42.6841 134.575 42.8743 135.037 43.2123 135.378C43.5504 135.718 44.0087 135.91 44.4868 135.91H187.716C188.194 135.91 188.653 135.718 188.991 135.378C189.329 135.037 189.519 134.575 189.519 134.094V55.1937C189.519 54.7121 189.329 54.2503 188.991 53.9097C188.653 53.5691 188.194 53.3775 187.716 53.377ZM189.004 134.094C189.004 134.438 188.868 134.768 188.627 135.011C188.385 135.254 188.058 135.391 187.716 135.391H44.4868C44.1453 135.391 43.8177 135.254 43.5762 135.011C43.3347 134.768 43.1989 134.438 43.1988 134.094V55.1937C43.1993 54.8581 43.3285 54.5357 43.5594 54.2939C43.7903 54.052 44.1051 53.9095 44.4379 53.896L74.8844 66.6238L116.431 83.9922C116.881 84.1766 117.385 84.1738 117.833 83.9844L158.091 66.6628L187.768 53.896C188.1 53.9105 188.414 54.0534 188.644 54.2951C188.874 54.5368 189.003 54.8587 189.004 55.1937V134.094Z" fill="#34785C"/>
<path d="M110.643 30.2649H82.306C81.7599 30.2642 81.2365 30.0451 80.8506 29.6558C80.4648 29.2665 80.248 28.7388 80.248 28.1886C80.248 27.6385 80.4648 27.1108 80.8506 26.7215C81.2365 26.3322 81.7599 26.1131 82.306 26.1123H110.643C111.189 26.1131 111.712 26.3322 112.098 26.7215C112.484 27.1108 112.701 27.6385 112.701 28.1886C112.701 28.7388 112.484 29.2665 112.098 29.6558C111.712 30.0451 111.189 30.2642 110.643 30.2649Z" fill="#34785C"/>
<path d="M95.9581 21.4417H82.305C81.7584 21.4417 81.2342 21.2229 80.8478 20.8335C80.4613 20.4442 80.2441 19.916 80.2441 19.3654C80.2441 18.8147 80.4613 18.2866 80.8478 17.8972C81.2342 17.5078 81.7584 17.2891 82.305 17.2891H95.9581C96.5047 17.2891 97.0289 17.5078 97.4154 17.8972C97.8019 18.2866 98.019 18.8147 98.019 19.3654C98.019 19.916 97.8019 20.4442 97.4154 20.8335C97.0289 21.2229 96.5047 21.4417 95.9581 21.4417Z" fill="#34785C"/>
<path d="M137.682 51.0286H94.4036C93.8576 51.0278 93.3341 50.8087 92.9483 50.4194C92.5624 50.0301 92.3457 49.5025 92.3457 48.9523C92.3457 48.4021 92.5624 47.8745 92.9483 47.4852C93.3341 47.0959 93.8576 46.8768 94.4036 46.876H137.682C138.228 46.8768 138.751 47.0959 139.137 47.4852C139.523 47.8745 139.739 48.4021 139.739 48.9523C139.739 49.5025 139.523 50.0301 139.137 50.4194C138.751 50.8087 138.228 51.0278 137.682 51.0286Z" fill="#121212" fill-opacity="0.16"/>
<path d="M137.681 60.6311H94.4026C93.8561 60.6311 93.3319 60.4124 92.9454 60.023C92.5589 59.6336 92.3418 59.1055 92.3418 58.5548C92.3418 58.0042 92.5589 57.476 92.9454 57.0867C93.3319 56.6973 93.8561 56.4785 94.4026 56.4785H137.681C138.227 56.4785 138.751 56.6973 139.138 57.0867C139.524 57.476 139.741 58.0042 139.741 58.5548C139.741 59.1055 139.524 59.6336 139.138 60.023C138.751 60.4124 138.227 60.6311 137.681 60.6311Z" fill="#121212" fill-opacity="0.16"/>
<path d="M186.916 73.8728C197.739 73.8728 206.512 65.0336 206.512 54.1298C206.512 43.226 197.739 34.3867 186.916 34.3867C176.094 34.3867 167.32 43.226 167.32 54.1298C167.32 65.0336 176.094 73.8728 186.916 73.8728Z" fill="#34785C"/>
<path d="M185.051 62.4638L180.5 56.5682C179.772 55.6259 179.941 54.2733 180.878 53.539C181.825 52.7972 183.195 52.9684 183.93 53.9205L185.373 55.7904L193.258 47.4042C194.083 46.5271 195.464 46.4897 196.335 47.321C197.197 48.1435 197.234 49.5071 196.418 50.375L185.051 62.4638Z" fill="white"/>
<path opacity="0.16" d="M4.68993 19.7038C4.55617 19.6242 4.40284 19.5841 4.24751 19.5882C4.09217 19.5923 3.94112 19.6404 3.81168 19.727C3.68224 19.8136 3.57964 19.9352 3.51565 20.0779C3.45165 20.2205 3.42885 20.3784 3.44985 20.5336L4.08848 25.2528C4.09726 25.3224 4.09255 25.393 4.07459 25.4608C4.05456 25.5275 4.02115 25.5894 3.97641 25.6425L0.399536 29.9118C0.280044 30.0492 0.209884 30.2231 0.20034 30.4056C0.190795 30.588 0.242426 30.7684 0.346919 30.9177L0.350668 30.9232C0.450767 31.0741 0.598105 31.1869 0.769222 31.2437C0.940339 31.3005 1.1254 31.298 1.29493 31.2366L3.87807 30.3532C3.9637 30.3247 4.05542 30.3201 4.14342 30.3401C4.23141 30.36 4.31237 30.4037 4.37762 30.4665C4.4263 30.5119 4.46512 30.567 4.49163 30.6282C4.51815 30.6895 4.53177 30.7557 4.53168 30.8225L4.63264 40.0952C4.63369 40.2295 4.66718 40.3614 4.73018 40.4797C4.79318 40.598 4.88382 40.6991 4.99426 40.7741C5.1043 40.8491 5.23059 40.8962 5.36251 40.9117C5.49443 40.9272 5.62811 40.9105 5.75229 40.8631L25.0322 33.4343C25.1776 33.3786 25.3044 33.2827 25.398 33.1576C25.4917 33.0324 25.5484 32.8832 25.5617 32.7271C25.5749 32.571 25.5442 32.4142 25.4729 32.2749C25.4017 32.1356 25.2929 32.0194 25.159 31.9396L24.8965 31.7825L4.68993 19.7038V19.7038ZM3.77625 20.4882C3.76384 20.3951 3.77772 20.3003 3.8163 20.2147C3.85488 20.1292 3.9166 20.0563 3.99438 20.0044C4.07216 19.9525 4.16287 19.9238 4.25612 19.9214C4.34936 19.9191 4.44138 19.9433 4.52164 19.9911L24.7217 32.0662L24.9906 32.2269C25.0705 32.275 25.1354 32.3447 25.1779 32.4282C25.2203 32.5116 25.2386 32.6054 25.2307 32.6989C25.2229 32.7923 25.1891 32.8816 25.1333 32.9567C25.0775 33.0317 25.0019 33.0895 24.9151 33.1233L5.63523 40.5521C5.56066 40.5807 5.48035 40.5907 5.40111 40.5813C5.32188 40.5719 5.24607 40.5434 5.18012 40.4982C5.11416 40.4529 5.06002 40.3923 5.02229 40.3215C4.98456 40.2507 4.96437 40.1717 4.96341 40.0914L4.86247 30.8187C4.86252 30.727 4.84689 30.6359 4.81622 30.5495L24.4449 32.8217C24.5215 32.8313 24.5989 32.8137 24.6639 32.7719C24.729 32.7301 24.7774 32.6667 24.801 32.5927C24.8245 32.5186 24.8216 32.4387 24.7928 32.3666C24.764 32.2945 24.7111 32.2348 24.6433 32.1978C24.6268 32.1886 24.6095 32.181 24.5916 32.1751L4.42078 25.3916C4.42568 25.3302 4.42369 25.2684 4.41488 25.2075L3.77623 20.4882L3.77625 20.4882Z" fill="#34785C"/>
<path opacity="0.12" d="M4.68993 19.7038C4.55617 19.6242 4.40284 19.5841 4.24751 19.5882C4.09217 19.5923 3.94112 19.6404 3.81168 19.727C3.68224 19.8136 3.57964 19.9352 3.51565 20.0779C3.45165 20.2205 3.42885 20.3784 3.44985 20.5336L4.08848 25.2528C4.09726 25.3224 4.09255 25.393 4.07459 25.4608C4.05456 25.5275 4.02115 25.5894 3.97641 25.6425L0.399536 29.9118C0.280044 30.0492 0.209884 30.2231 0.20034 30.4056C0.190795 30.588 0.242426 30.7684 0.346919 30.9177L0.350668 30.9232C0.450767 31.0741 0.598105 31.1869 0.769222 31.2437C0.940339 31.3005 1.1254 31.298 1.29493 31.2366L3.87807 30.3532C3.9637 30.3247 4.05542 30.3201 4.14342 30.3401C4.23142 30.36 4.31237 30.4037 4.37762 30.4665C4.4263 30.5119 4.46512 30.567 4.49163 30.6282C4.51815 30.6895 4.53177 30.7557 4.53168 30.8225L4.63264 40.0952C4.63369 40.2295 4.66718 40.3614 4.73018 40.4797C4.79318 40.598 4.88382 40.699 4.99426 40.7741C5.1043 40.8491 5.23059 40.8962 5.36251 40.9117C5.49443 40.9272 5.62811 40.9105 5.75229 40.8631L25.0322 33.4343C25.1776 33.3786 25.3044 33.2827 25.398 33.1576C25.4917 33.0324 25.5484 32.8832 25.5617 32.7271C25.5749 32.571 25.5442 32.4142 25.4729 32.2749C25.4017 32.1356 25.2929 32.0194 25.159 31.9396L24.8965 31.7825L4.68993 19.7038ZM3.77625 20.4882C3.76385 20.3951 3.77773 20.3003 3.8163 20.2147C3.85488 20.1292 3.9166 20.0563 3.99438 20.0044C4.07216 19.9525 4.16287 19.9238 4.25612 19.9214C4.34936 19.9191 4.44138 19.9433 4.52164 19.9911L24.7217 32.0662L24.9906 32.2269C25.0705 32.275 25.1354 32.3447 25.1779 32.4282C25.2203 32.5116 25.2386 32.6054 25.2307 32.6989C25.2229 32.7923 25.1891 32.8816 25.1333 32.9567C25.0775 33.0317 25.0019 33.0895 24.9151 33.1233L5.63523 40.5521C5.56066 40.5807 5.48035 40.5907 5.40111 40.5813C5.32188 40.5719 5.24607 40.5434 5.18012 40.4982C5.11417 40.4529 5.06003 40.3923 5.0223 40.3215C4.98457 40.2507 4.96437 40.1717 4.96341 40.0913L4.86245 30.8187C4.86251 30.7269 4.84687 30.6359 4.81621 30.5495C4.77301 30.425 4.70032 30.3131 4.60445 30.2234C4.59141 30.2103 4.57701 30.1981 4.56258 30.1858L4.56166 30.1845C4.45336 30.0944 4.32401 30.0337 4.18587 30.0081C4.04774 29.9825 3.90541 29.9929 3.7724 30.0384L1.18791 30.9226C1.08605 30.9599 0.974667 30.9614 0.871856 30.9269C0.769046 30.8923 0.680825 30.8238 0.621494 30.7325L0.619613 30.7297C0.556194 30.6405 0.524801 30.5322 0.5306 30.4226C0.5364 30.313 0.57905 30.2086 0.651527 30.1267L4.22846 25.8575C4.2667 25.8128 4.29982 25.7639 4.32722 25.7117L4.32858 25.7108C4.35501 25.6608 4.3761 25.6082 4.39148 25.5537C4.40696 25.5009 4.41678 25.4465 4.4208 25.3916C4.42569 25.3302 4.42371 25.2684 4.41489 25.2075L3.77625 20.4882Z" fill="#34785C"/>
<path opacity="0.12" d="M4.42092 25.3922L24.5917 32.1757C24.6097 32.1816 24.627 32.1891 24.6434 32.1984C24.7113 32.2354 24.7642 32.2951 24.793 32.3672C24.8217 32.4393 24.8246 32.5192 24.8011 32.5932C24.7775 32.6673 24.7291 32.7306 24.6641 32.7725C24.5991 32.8143 24.5216 32.8319 24.4451 32.8223L4.81634 30.55L4.4697 30.5103L4.50808 30.18L4.56178 30.1851L4.56269 30.1864L24.4825 32.4906L4.3287 25.7113L4.32734 25.7123L4.24023 25.682L4.34485 25.3662L4.42092 25.3922Z" fill="#34785C"/>
<path opacity="0.16" d="M229.633 0.115944L209.426 12.1946L209.164 12.3517C209.03 12.4315 208.921 12.5477 208.85 12.687C208.778 12.8263 208.748 12.9831 208.761 13.1392C208.774 13.2954 208.831 13.4446 208.924 13.5697C209.018 13.6948 209.145 13.7907 209.29 13.8464L228.57 21.2752C228.694 21.3226 228.828 21.3393 228.96 21.3238C229.092 21.3084 229.218 21.2612 229.328 21.1863C229.439 21.1112 229.529 21.0101 229.592 20.8918C229.655 20.7736 229.689 20.6416 229.69 20.5074L229.791 11.2346C229.791 11.1678 229.804 11.1016 229.831 11.0404C229.857 10.9791 229.896 10.924 229.945 10.8786C230.01 10.8158 230.091 10.7722 230.179 10.7522C230.267 10.7323 230.359 10.7368 230.445 10.7653L233.028 11.6487C233.197 11.7101 233.382 11.7126 233.553 11.6558C233.724 11.599 233.872 11.4862 233.972 11.3353L233.976 11.3298C234.08 11.1805 234.132 11.0001 234.122 10.8177C234.113 10.6352 234.043 10.4613 233.923 10.3239L230.346 6.05466C230.301 6.00149 230.268 5.93963 230.248 5.87291C230.23 5.80514 230.225 5.7345 230.234 5.66492L230.873 0.945673C230.894 0.790558 230.871 0.632624 230.807 0.489968C230.743 0.347312 230.64 0.225714 230.511 0.139106C230.381 0.0524973 230.23 0.00438264 230.075 0.00028543C229.92 -0.00381178 229.766 0.0362724 229.633 0.115938V0.115944ZM230.546 0.900349L229.908 5.61958C229.899 5.68053 229.897 5.74229 229.902 5.80369L209.731 12.5872C209.713 12.5931 209.696 12.6007 209.679 12.6099C209.611 12.6469 209.558 12.7066 209.53 12.7787C209.501 12.8508 209.498 12.9307 209.522 13.0048C209.545 13.0788 209.594 13.1422 209.659 13.184C209.724 13.2258 209.801 13.2434 209.878 13.2338L229.506 10.9616C229.476 11.048 229.46 11.1391 229.46 11.2308L229.359 20.5035C229.358 20.5838 229.338 20.6628 229.3 20.7336C229.263 20.8044 229.208 20.865 229.142 20.9103C229.077 20.9555 229.001 20.984 228.921 20.9934C228.842 21.0028 228.762 20.9928 228.687 20.9642L209.407 13.5354C209.321 13.5016 209.245 13.4438 209.189 13.3688C209.133 13.2937 209.1 13.2044 209.092 13.111C209.084 13.0175 209.102 12.9237 209.145 12.8403C209.187 12.7568 209.252 12.6871 209.332 12.639L209.601 12.4784L229.801 0.403245C229.881 0.355352 229.973 0.331198 230.066 0.333545C230.16 0.335892 230.25 0.364647 230.328 0.416517C230.406 0.468387 230.468 0.541273 230.506 0.626836C230.545 0.712399 230.559 0.807181 230.546 0.900323V0.900349Z" fill="#34785C"/>
<path opacity="0.12" d="M229.633 0.115944L209.426 12.1946L209.164 12.3517C209.03 12.4315 208.921 12.5477 208.85 12.687C208.778 12.8263 208.748 12.9831 208.761 13.1392C208.774 13.2954 208.831 13.4446 208.924 13.5697C209.018 13.6948 209.145 13.7907 209.29 13.8464L228.57 21.2752C228.694 21.3226 228.828 21.3393 228.96 21.3238C229.092 21.3084 229.218 21.2612 229.328 21.1863C229.439 21.1112 229.529 21.0101 229.592 20.8918C229.655 20.7736 229.689 20.6416 229.69 20.5074L229.791 11.2346C229.791 11.1678 229.804 11.1016 229.831 11.0404C229.857 10.9791 229.896 10.924 229.945 10.8786C230.01 10.8158 230.091 10.7722 230.179 10.7522C230.267 10.7323 230.359 10.7368 230.445 10.7653L233.028 11.6487C233.197 11.7101 233.382 11.7126 233.553 11.6558C233.724 11.599 233.872 11.4862 233.972 11.3353L233.976 11.3298C234.08 11.1805 234.132 11.0001 234.122 10.8177C234.113 10.6352 234.043 10.4613 233.923 10.3239L230.346 6.05466C230.301 6.00149 230.268 5.93963 230.248 5.87291C230.23 5.80514 230.225 5.7345 230.234 5.66492L230.873 0.945673C230.894 0.790558 230.871 0.632624 230.807 0.489968C230.743 0.347312 230.64 0.225714 230.511 0.139106C230.381 0.0524973 230.23 0.00438264 230.075 0.00028543C229.92 -0.00381178 229.766 0.0362724 229.633 0.115938V0.115944ZM230.546 0.900349L229.908 5.61959C229.899 5.68054 229.897 5.7423 229.902 5.8037C229.906 5.85864 229.916 5.91299 229.931 5.96583C229.947 6.02028 229.968 6.07293 229.994 6.12289L229.995 6.12383C230.023 6.176 230.056 6.2249 230.094 6.26961L233.671 10.5388C233.744 10.6207 233.786 10.7251 233.792 10.8347C233.798 10.9443 233.766 11.0526 233.703 11.1418L233.701 11.1446C233.642 11.2359 233.554 11.3044 233.451 11.339C233.348 11.3735 233.237 11.372 233.135 11.3347L230.55 10.4505C230.417 10.405 230.275 10.3946 230.137 10.4202C229.999 10.4458 229.869 10.5065 229.761 10.5966L229.76 10.5979C229.746 10.6102 229.731 10.6224 229.718 10.6355C229.622 10.7252 229.55 10.8371 229.506 10.9616C229.476 11.048 229.46 11.139 229.46 11.2308L229.359 20.5035C229.358 20.5838 229.338 20.6628 229.3 20.7336C229.263 20.8044 229.208 20.865 229.142 20.9103C229.077 20.9555 229.001 20.984 228.921 20.9934C228.842 21.0028 228.762 20.9928 228.687 20.9642L209.407 13.5354C209.321 13.5016 209.245 13.4438 209.189 13.3688C209.133 13.2937 209.1 13.2044 209.092 13.111C209.084 13.0175 209.102 12.9238 209.145 12.8403C209.187 12.7568 209.252 12.6871 209.332 12.639L209.601 12.4784L229.801 0.403251C229.881 0.355358 229.973 0.331205 230.066 0.333552C230.16 0.335898 230.25 0.364653 230.328 0.416523C230.406 0.468393 230.468 0.541279 230.506 0.626842C230.545 0.712405 230.559 0.807187 230.546 0.90033V0.900349Z" fill="#34785C"/>
<path opacity="0.12" d="M229.978 5.77734L230.082 6.09312L229.995 6.12342L229.994 6.12248L209.84 12.9018L229.76 10.5975L229.761 10.5962L229.815 10.5911L229.853 10.9214L229.506 10.9612L209.878 13.2334C209.801 13.243 209.724 13.2254 209.659 13.1836C209.594 13.1418 209.545 13.0784 209.522 13.0044C209.498 12.9304 209.501 12.8504 209.53 12.7783C209.559 12.7062 209.611 12.6465 209.679 12.6095C209.696 12.6003 209.713 12.5927 209.731 12.5869L229.902 5.80332L229.978 5.77734Z" fill="#34785C"/>
<path opacity="0.16" d="M5.85834 109.892C5.72002 109.963 5.60446 110.073 5.52488 110.207C5.44531 110.341 5.40493 110.496 5.40841 110.652C5.41189 110.809 5.45907 110.961 5.54455 111.092C5.63002 111.223 5.75034 111.326 5.89169 111.391L10.1921 113.37C10.2551 113.399 10.3119 113.441 10.3592 113.493C10.4044 113.545 10.4385 113.607 10.4592 113.673L12.1292 119.001C12.1806 119.176 12.289 119.329 12.4369 119.434C12.5849 119.54 12.7638 119.593 12.9449 119.583L12.9515 119.583C13.1316 119.578 13.305 119.513 13.4441 119.398C13.5832 119.283 13.68 119.124 13.7191 118.946L14.3585 116.275C14.3804 116.187 14.4256 116.106 14.4893 116.042C14.5531 115.977 14.633 115.932 14.7205 115.91C14.7846 115.893 14.8516 115.889 14.9171 115.899C14.9827 115.909 15.0455 115.933 15.1015 115.969L22.9346 120.838C23.0478 120.909 23.1764 120.951 23.3093 120.961C23.4422 120.97 23.5754 120.947 23.6974 120.893C23.819 120.84 23.9261 120.757 24.0096 120.653C24.0931 120.549 24.1506 120.426 24.1771 120.295L28.2486 99.9074C28.2795 99.7538 28.2668 99.5945 28.2119 99.4479C28.157 99.3013 28.0622 99.1732 27.9382 99.0785C27.8143 98.9838 27.6664 98.9262 27.5115 98.9124C27.3565 98.8986 27.2009 98.9292 27.0624 99.0006L26.7903 99.1402L5.85834 109.892ZM6.02811 111.089C5.94334 111.05 5.87122 110.988 5.82006 110.909C5.7689 110.83 5.74073 110.739 5.73878 110.645C5.73684 110.551 5.76119 110.458 5.80905 110.378C5.85692 110.297 5.92638 110.232 6.00945 110.189L26.9349 99.4406L27.2134 99.2975C27.2964 99.2551 27.3896 99.2372 27.4823 99.2456C27.575 99.2541 27.6635 99.2886 27.7377 99.3452C27.8118 99.4019 27.8687 99.4784 27.9019 99.566C27.935 99.6536 27.943 99.7489 27.9251 99.8409L23.8536 120.229C23.8377 120.308 23.8032 120.381 23.753 120.444C23.7028 120.506 23.6383 120.556 23.5651 120.588C23.4919 120.62 23.4122 120.633 23.3326 120.628C23.253 120.622 23.176 120.597 23.108 120.555L15.275 115.685C15.1981 115.636 15.1134 115.601 15.0245 115.581L27.4207 100.08C27.4697 100.02 27.4964 99.9446 27.496 99.8669C27.4957 99.7892 27.4684 99.714 27.4189 99.6545C27.3693 99.5949 27.3007 99.5546 27.2249 99.5405C27.149 99.5265 27.0706 99.5397 27.0033 99.5777C26.9868 99.5868 26.9712 99.5975 26.9567 99.6096L10.4861 113.161C10.4372 113.124 10.3843 113.093 10.3285 113.068L6.02811 111.089Z" fill="#34785C"/>
<path opacity="0.16" d="M226.801 98.4807C226.954 98.4497 227.112 98.4624 227.258 98.5174C227.405 98.5724 227.533 98.6674 227.628 98.7916C227.723 98.9158 227.782 99.0641 227.797 99.2196C227.812 99.375 227.784 99.5313 227.714 99.6705L225.601 103.906C225.57 103.969 225.552 104.037 225.547 104.107C225.545 104.176 225.557 104.245 225.583 104.31L227.617 109.509C227.687 109.678 227.698 109.865 227.649 110.04C227.6 110.215 227.493 110.368 227.346 110.474L227.341 110.478C227.198 110.587 227.022 110.645 226.841 110.642C226.66 110.64 226.485 110.576 226.344 110.463L224.172 108.78C224.1 108.725 224.014 108.691 223.924 108.68C223.834 108.67 223.743 108.685 223.661 108.722C223.6 108.749 223.546 108.788 223.501 108.837C223.457 108.886 223.422 108.944 223.401 109.007L220.345 117.709C220.301 117.835 220.227 117.949 220.129 118.039C220.031 118.13 219.913 118.195 219.784 118.23C219.656 118.264 219.521 118.267 219.39 118.238C219.26 118.209 219.139 118.15 219.036 118.064L203.093 104.72C202.972 104.619 202.882 104.487 202.833 104.339C202.784 104.19 202.778 104.031 202.815 103.879C202.853 103.728 202.932 103.59 203.044 103.483C203.156 103.375 203.297 103.301 203.449 103.27L203.749 103.208L226.801 98.4807ZM227.419 99.5204C227.46 99.4367 227.477 99.3429 227.468 99.2496C227.459 99.1562 227.423 99.0673 227.366 98.9928C227.309 98.9184 227.232 98.8614 227.144 98.8285C227.056 98.7956 226.961 98.7881 226.869 98.8068L203.824 103.533L203.518 103.596C203.426 103.615 203.343 103.659 203.276 103.724C203.209 103.789 203.161 103.871 203.139 103.962C203.117 104.052 203.12 104.147 203.149 104.237C203.178 104.326 203.232 104.405 203.303 104.465L219.246 117.81C219.308 117.861 219.381 117.897 219.459 117.914C219.538 117.931 219.619 117.929 219.696 117.909C219.773 117.888 219.844 117.848 219.902 117.794C219.961 117.74 220.005 117.672 220.032 117.597L223.088 108.895C223.117 108.808 223.161 108.728 223.218 108.656L203.846 104.336C203.77 104.32 203.702 104.278 203.654 104.217C203.606 104.156 203.58 104.08 203.581 104.003C203.582 103.926 203.611 103.851 203.661 103.793C203.711 103.734 203.781 103.695 203.857 103.683C203.876 103.68 203.894 103.678 203.913 103.679L225.241 103.927C225.256 103.868 225.277 103.81 225.305 103.756L227.419 99.5204Z" fill="#34785C"/>
<path opacity="0.12" d="M5.85834 109.892C5.72002 109.963 5.60446 110.073 5.52488 110.207C5.44531 110.341 5.40493 110.496 5.40841 110.652C5.41189 110.809 5.45907 110.961 5.54455 111.092C5.63002 111.223 5.75034 111.326 5.89169 111.391L10.1921 113.37C10.2551 113.399 10.3119 113.441 10.3592 113.493C10.4044 113.545 10.4385 113.607 10.4592 113.673L12.1292 119.001C12.1806 119.176 12.289 119.329 12.4369 119.434C12.5849 119.54 12.7638 119.593 12.9449 119.583L12.9515 119.583C13.1316 119.578 13.305 119.513 13.4441 119.398C13.5832 119.283 13.68 119.124 13.7191 118.946L14.3585 116.275C14.3804 116.187 14.4256 116.106 14.4893 116.042C14.5531 115.977 14.633 115.932 14.7205 115.91C14.7846 115.893 14.8516 115.889 14.9171 115.899C14.9827 115.909 15.0455 115.933 15.1015 115.969L22.9346 120.838C23.0478 120.909 23.1764 120.951 23.3093 120.961C23.4422 120.97 23.5754 120.947 23.6974 120.893C23.819 120.84 23.9261 120.757 24.0096 120.653C24.0931 120.549 24.1506 120.426 24.1771 120.295L28.2486 99.9074C28.2795 99.7538 28.2668 99.5945 28.2119 99.4479C28.157 99.3013 28.0622 99.1732 27.9382 99.0785C27.8143 98.9838 27.6664 98.9262 27.5115 98.9124C27.3565 98.8986 27.2009 98.9292 27.0624 99.0006L26.7903 99.1402L5.85834 109.892ZM6.02811 111.089C5.94334 111.05 5.87122 110.988 5.82006 110.909C5.7689 110.83 5.74073 110.739 5.73878 110.645C5.73684 110.551 5.76119 110.458 5.80905 110.378C5.85692 110.297 5.92638 110.232 6.00945 110.189L26.9349 99.4406L27.2134 99.2975C27.2964 99.2551 27.3896 99.2372 27.4823 99.2456C27.575 99.2541 27.6635 99.2886 27.7377 99.3452C27.8118 99.4019 27.8687 99.4784 27.9019 99.566C27.935 99.6536 27.943 99.7489 27.9251 99.8409L23.8536 120.229C23.8377 120.308 23.8032 120.381 23.753 120.444C23.7028 120.506 23.6383 120.556 23.5651 120.588C23.4919 120.62 23.4122 120.633 23.3326 120.628C23.253 120.622 23.176 120.597 23.108 120.555L15.275 115.685C15.1981 115.636 15.1133 115.601 15.0245 115.581C14.897 115.551 14.7643 115.553 14.6378 115.587C14.6198 115.591 14.6019 115.597 14.5839 115.602L14.5822 115.602C14.4488 115.646 14.3287 115.724 14.2335 115.828C14.1382 115.932 14.0709 116.059 14.0379 116.196L13.3985 118.87C13.3753 118.976 13.317 119.072 13.2331 119.141C13.1492 119.21 13.0446 119.249 12.9362 119.251L12.9329 119.251C12.8242 119.257 12.7165 119.226 12.6277 119.162C12.5388 119.099 12.4741 119.007 12.4441 118.901L10.7742 113.574C10.7571 113.517 10.7338 113.463 10.7046 113.412L10.7046 113.41C10.6768 113.361 10.6439 113.315 10.6064 113.273C10.5704 113.231 10.53 113.194 10.4861 113.161C10.4372 113.124 10.3843 113.093 10.3285 113.068L6.02811 111.089Z" fill="#34785C"/>
<path opacity="0.12" d="M226.801 98.4807C226.954 98.4497 227.112 98.4624 227.258 98.5174C227.405 98.5724 227.533 98.6674 227.628 98.7916C227.723 98.9158 227.782 99.0641 227.797 99.2196C227.812 99.375 227.784 99.5313 227.714 99.6705L225.601 103.906C225.57 103.969 225.552 104.037 225.547 104.107C225.545 104.176 225.557 104.245 225.583 104.31L227.617 109.509C227.687 109.678 227.698 109.865 227.649 110.04C227.6 110.215 227.493 110.368 227.346 110.474L227.341 110.478C227.198 110.587 227.022 110.645 226.841 110.642C226.66 110.64 226.485 110.576 226.344 110.463L224.172 108.78C224.1 108.725 224.014 108.691 223.924 108.68C223.834 108.67 223.743 108.685 223.661 108.722C223.6 108.749 223.546 108.788 223.501 108.837C223.457 108.886 223.422 108.944 223.401 109.007L220.345 117.709C220.301 117.835 220.227 117.949 220.129 118.039C220.031 118.13 219.913 118.195 219.784 118.23C219.656 118.264 219.521 118.267 219.39 118.238C219.26 118.209 219.139 118.15 219.036 118.064L203.093 104.72C202.972 104.619 202.882 104.487 202.833 104.339C202.784 104.19 202.778 104.031 202.815 103.879C202.853 103.728 202.932 103.59 203.044 103.483C203.156 103.375 203.297 103.301 203.449 103.27L203.749 103.208L226.801 98.4807ZM227.419 99.5204C227.46 99.4367 227.477 99.3429 227.468 99.2496C227.459 99.1562 227.423 99.0673 227.366 98.9928C227.309 98.9184 227.232 98.8614 227.144 98.8285C227.056 98.7956 226.961 98.7881 226.869 98.8068L203.824 103.533L203.518 103.596C203.426 103.615 203.343 103.659 203.276 103.724C203.209 103.789 203.161 103.871 203.139 103.962C203.117 104.052 203.12 104.147 203.149 104.237C203.178 104.326 203.232 104.405 203.303 104.465L219.246 117.81C219.308 117.861 219.381 117.897 219.459 117.914C219.538 117.931 219.619 117.929 219.696 117.909C219.773 117.888 219.844 117.848 219.902 117.794C219.961 117.74 220.005 117.672 220.032 117.597L223.088 108.895C223.117 108.808 223.161 108.727 223.218 108.656C223.299 108.553 223.404 108.472 223.523 108.419C223.54 108.411 223.558 108.404 223.575 108.397L223.576 108.396C223.708 108.347 223.85 108.332 223.99 108.354C224.129 108.375 224.261 108.432 224.373 108.518L226.546 110.202C226.631 110.271 226.736 110.309 226.845 110.31C226.953 110.311 227.059 110.276 227.144 110.209L227.147 110.207C227.236 110.144 227.3 110.052 227.33 109.947C227.359 109.842 227.352 109.73 227.309 109.629L225.275 104.43C225.253 104.375 225.237 104.318 225.227 104.26L225.226 104.258C225.217 104.203 225.214 104.146 225.217 104.09C225.219 104.035 225.227 103.98 225.241 103.927C225.256 103.868 225.277 103.81 225.305 103.756L227.419 99.5204Z" fill="#34785C"/>
<path opacity="0.12" d="M10.4862 113.161L26.9569 99.6097C26.9713 99.5975 26.987 99.5868 27.0035 99.5778C27.0708 99.5397 27.1491 99.5266 27.225 99.5406C27.3009 99.5546 27.3695 99.5949 27.419 99.6545C27.4685 99.7141 27.4958 99.7892 27.4962 99.867C27.4965 99.9447 27.4699 100.02 27.4209 100.08L15.0246 115.581L14.806 115.855L14.5495 115.646L14.5824 115.603L14.584 115.602L27.1627 99.871L10.7047 113.41L10.7048 113.412L10.6328 113.47L10.4238 113.212L10.4862 113.161Z" fill="#34785C"/>
<path opacity="0.12" d="M225.241 103.927L203.914 103.678C203.895 103.678 203.876 103.679 203.857 103.683C203.781 103.695 203.712 103.734 203.661 103.792C203.611 103.851 203.583 103.925 203.581 104.003C203.58 104.08 203.606 104.156 203.654 104.217C203.703 104.277 203.771 104.32 203.847 104.336L223.219 108.656L223.561 108.733L223.63 108.409L223.577 108.396L223.576 108.397L203.917 104.011L225.227 104.258L225.228 104.26L225.32 104.26L225.322 103.928L225.241 103.927Z" fill="#34785C"/>
</g>
<defs>
<clipPath id="clip0_200_7786">
<rect width="234.136" height="136" fill="white"/>
</clipPath>
</defs>
</svg>
